# xmcd
#
# Track frame offsets:
#	182
#	8582
#	27242
#	40537
#	66452
#	87042
#	98392
#	113257
#	123332
#	148755
#
# Disc length: 2114
#
# Revision: 1
# Processed by: cddbd v1.5.1PL0 Copyright (c) Steve Scherf et al.
# Submitted via: VisiTrax 2.9.5.180 - For more info visit www.synapsa.com
# Normalized: r0:DSETVAR1
#
DISCID=6c08400a
DTITLE=Various Artist - Warner Western Volume two
DYEAR=1993
DGENRE=
TTITLE0=Sons of the San Joaquin - Cowboy jubilee
TTITLE1=Don Edwards - Goin' back to Texas
TTITLE2=Red Steagall - Born to this land
TTITLE3=Bill Miller - Praises
TTITLE4=Bill Miller - Reservation road
TTITLE5=Randy Travis - Roamin' Wyoming
TTITLE6=Randy Travis - Down at the old corral
TTITLE7=Waddie Mitchell - Morning soliloquy
TTITLE8=Michael Martin Murphy - Spanish is the lovin' tongue
TTITLE9=Michael Martin Murphy - Merry Texas christmas to you all
EXTD=
EXTT0=
EXTT1=
EXTT2=
EXTT3=
EXTT4=
EXTT5=
EXTT6=
EXTT7=
EXTT8=
EXTT9=
PLAYORDER=
